<svg width="46" height="49" viewBox="0 0 46 49" fill="none" xmlns="http://www.w3.org/2000/svg">
<rect y="0.5" width="46" height="48" rx="10" fill="#F4EBFF"/>
<path d="M16 30.5V34.266L17.515 33.357L22.277 30.5H27C28.103 30.5 29 29.603 29 28.5V20.5C29 19.397 28.103 18.5 27 18.5H15C13.897 18.5 13 19.397 13 20.5V28.5C13 29.603 13.897 30.5 15 30.5H16ZM15 20.5H27V28.5H21.723L18 30.734V28.5H15V20.5Z" fill="#F58EBB"/>
<path d="M31 14.5H19C17.897 14.5 17 15.397 17 16.5H29C30.103 16.5 31 17.397 31 18.5V26.5C32.103 26.5 33 25.603 33 24.5V16.5C33 15.397 32.103 14.5 31 14.5Z" fill="#F58EBB"/>
</svg>
