<svg width="191" height="73" viewBox="0 0 191 73" fill="none" xmlns="http://www.w3.org/2000/svg">
<path opacity="0.95" d="M68.5957 50.0068H63.2344V24.3076H77.9648V28.7725H68.5957V35.3994H77.3145V39.8467H68.5957V50.0068ZM99.7775 30.3545V50.0068H95.6642L94.9435 47.4932H94.6622C94.2404 48.1611 93.713 48.7061 93.0802 49.1279C92.4474 49.5498 91.7501 49.8604 90.9884 50.0596C90.2267 50.2588 89.4357 50.3584 88.6154 50.3584C87.2091 50.3584 85.9845 50.1123 84.9415 49.6201C83.8986 49.1162 83.0841 48.3369 82.4982 47.2822C81.924 46.2275 81.6368 44.8564 81.6368 43.1689V30.3545H86.9982V41.833C86.9982 43.2393 87.2501 44.2998 87.754 45.0146C88.2579 45.7295 89.0607 46.0869 90.1622 46.0869C91.2521 46.0869 92.1075 45.8408 92.7286 45.3486C93.3497 44.8447 93.7833 44.1123 94.0294 43.1514C94.2872 42.1787 94.4161 40.9951 94.4161 39.6006V30.3545H99.7775ZM115.737 29.9854C117.834 29.9854 119.522 30.5596 120.799 31.708C122.076 32.8447 122.715 34.6729 122.715 37.1924V50.0068H117.354V38.5283C117.354 37.1221 117.096 36.0615 116.58 35.3467C116.076 34.6318 115.28 34.2744 114.19 34.2744C112.549 34.2744 111.43 34.8311 110.832 35.9443C110.235 37.0576 109.936 38.6631 109.936 40.7607V50.0068H104.574V30.3545H108.67L109.391 32.8682H109.69C110.112 32.1885 110.633 31.6377 111.254 31.2158C111.887 30.7939 112.584 30.4834 113.346 30.2842C114.119 30.085 114.916 29.9854 115.737 29.9854ZM133.629 50.3584C131.438 50.3584 129.651 49.5029 128.268 47.792C126.897 46.0693 126.211 43.5439 126.211 40.2158C126.211 36.8525 126.909 34.3096 128.303 32.5869C129.698 30.8525 131.52 29.9854 133.77 29.9854C134.707 29.9854 135.534 30.1143 136.248 30.3721C136.963 30.6299 137.578 30.9756 138.094 31.4092C138.621 31.8428 139.067 32.3291 139.43 32.8682H139.606C139.536 32.4932 139.448 31.9424 139.342 31.2158C139.248 30.4775 139.202 29.7217 139.202 28.9482V22.6553H144.58V50.0068H140.467L139.43 47.458H139.202C138.862 47.9971 138.434 48.4893 137.918 48.9346C137.414 49.3682 136.811 49.7139 136.108 49.9717C135.405 50.2295 134.578 50.3584 133.629 50.3584ZM135.51 46.0869C136.975 46.0869 138.006 45.6533 138.604 44.7861C139.213 43.9072 139.536 42.5889 139.571 40.8311V40.251C139.571 38.3408 139.278 36.8818 138.692 35.874C138.106 34.8545 137.016 34.3447 135.422 34.3447C134.239 34.3447 133.313 34.8545 132.645 35.874C131.977 36.8936 131.643 38.3643 131.643 40.2861C131.643 42.208 131.977 43.6553 132.645 44.6279C133.325 45.6006 134.28 46.0869 135.51 46.0869ZM154.721 30.3545V50.0068H149.36V30.3545H154.721ZM152.049 22.6553C152.846 22.6553 153.532 22.8428 154.106 23.2178C154.68 23.5811 154.967 24.2666 154.967 25.2744C154.967 26.2705 154.68 26.9619 154.106 27.3486C153.532 27.7236 152.846 27.9111 152.049 27.9111C151.241 27.9111 150.549 27.7236 149.975 27.3486C149.413 26.9619 149.131 26.2705 149.131 25.2744C149.131 24.2666 149.413 23.5811 149.975 23.2178C150.549 22.8428 151.241 22.6553 152.049 22.6553ZM170.399 34.3799H165.758V50.0068H160.397V34.3799H157.444V31.7959L160.397 30.3545V28.9131C160.397 27.2373 160.678 25.9365 161.241 25.0107C161.815 24.0732 162.618 23.417 163.649 23.042C164.692 22.6553 165.923 22.4619 167.34 22.4619C168.383 22.4619 169.333 22.5498 170.188 22.7256C171.044 22.8896 171.741 23.0771 172.28 23.2881L170.909 27.2256C170.499 27.0967 170.053 26.9795 169.573 26.874C169.092 26.7686 168.542 26.7158 167.921 26.7158C167.171 26.7158 166.62 26.9443 166.268 27.4014C165.928 27.8467 165.758 28.4209 165.758 29.124V30.3545H170.399V34.3799ZM169.852 30.3545H175.723L179.432 41.4111C179.55 41.7627 179.649 42.1201 179.731 42.4834C179.813 42.8467 179.884 43.2217 179.942 43.6084C180.001 43.9951 180.048 44.3994 180.083 44.8213H180.188C180.259 44.1885 180.352 43.5967 180.469 43.0459C180.598 42.4951 180.757 41.9502 180.944 41.4111L184.583 30.3545H190.331L182.016 52.5205C181.512 53.8799 180.856 55.0107 180.048 55.9131C179.239 56.8271 178.307 57.5127 177.253 57.9697C176.21 58.4268 175.061 58.6553 173.807 58.6553C173.198 58.6553 172.671 58.6201 172.225 58.5498C171.78 58.4912 171.399 58.4268 171.083 58.3564V54.1025C171.329 54.1611 171.639 54.2139 172.014 54.2607C172.389 54.3076 172.782 54.3311 173.192 54.3311C173.942 54.3311 174.587 54.1729 175.126 53.8564C175.665 53.54 176.116 53.1123 176.479 52.5732C176.843 52.0459 177.13 51.4658 177.341 50.833L177.657 49.8662L169.852 30.3545Z" fill="black"/>
<path fill-rule="evenodd" clip-rule="evenodd" d="M20.2803 29.8361C21.9718 27.6319 24.0869 25.7905 26.5048 24.4171L32.9794 35.5845C32.0122 36.1339 31.1662 36.8704 30.4896 37.7521C29.813 38.6338 29.319 39.6434 29.0359 40.7231C28.7529 41.8029 28.6862 42.9318 28.8398 44.0453C28.9934 45.1588 29.3642 46.2351 29.931 47.2128C30.4978 48.1905 31.2496 49.0504 32.1434 49.7434C33.0372 50.4364 34.0555 50.949 35.1402 51.2519C36.2249 51.5548 37.3548 51.642 38.4652 51.5086C39.5757 51.3752 40.645 51.0238 41.6121 50.4745L48.0867 61.6419C45.6688 63.0153 42.9955 63.8938 40.2194 64.2273C37.4432 64.5608 34.6187 64.3427 31.9069 63.5855C29.1952 62.8283 26.6494 61.5469 24.4149 59.8143C22.1804 58.0817 20.3009 55.9319 18.8839 53.4877C17.4668 51.0435 16.5398 48.3527 16.1559 45.569C15.7719 42.7852 15.9385 39.9631 16.6462 37.2636C17.3539 34.5642 18.5887 32.0403 20.2803 29.8361ZM46.2183 42.264C44.5268 44.4682 42.4117 46.3095 39.9938 47.6829L33.5192 36.5155C34.4864 35.9661 35.3324 35.2296 36.009 34.3479C36.6856 33.4662 37.1796 32.4567 37.4626 31.3769C37.7457 30.2971 37.8124 29.1682 37.6588 28.0547C37.5052 26.9412 37.1344 25.8649 36.5676 24.8872C36.0008 23.9096 35.249 23.0497 34.3552 22.3566C33.4614 21.6636 32.4431 21.151 31.3584 20.8481C30.2737 20.5452 29.1438 20.458 28.0334 20.5914C26.9229 20.7248 25.8536 21.0762 24.8865 21.6256L18.4119 10.4581C20.8298 9.08473 23.5031 8.20622 26.2792 7.87273C29.0554 7.53925 31.8799 7.75732 34.5917 8.51451C37.3034 9.2717 39.8492 10.5532 42.0837 12.2858C44.3182 14.0183 46.1977 16.1681 47.6147 18.6123C49.0318 21.0565 49.9588 23.7473 50.3427 26.5311C50.7267 29.3148 50.56 32.137 49.8524 34.8364C49.1447 37.5359 47.9098 40.0597 46.2183 42.264Z" fill="#1496FF"/>
</svg>
