<svg width="83" height="93" viewBox="0 0 83 93" fill="none" xmlns="http://www.w3.org/2000/svg">
<path fill-rule="evenodd" clip-rule="evenodd" d="M25.4125 38.6485C27.5451 35.7914 30.2027 33.3976 33.2334 31.6036L41.2018 45.9264C39.9895 46.644 38.9265 47.6016 38.0735 48.7444C37.2204 49.8873 36.5941 51.193 36.2301 52.5871C35.8662 53.9812 35.7718 55.4363 35.9524 56.8694C36.133 58.3025 36.585 59.6855 37.2826 60.9395C37.9802 62.1934 38.9098 63.2937 40.0183 64.1776C41.1267 65.0615 42.3923 65.7116 43.7428 66.0908C45.0933 66.4701 46.5023 66.571 47.8893 66.3879C49.2763 66.2048 50.6141 65.7412 51.8264 65.0236L59.7948 79.3465C56.7641 81.1405 53.4195 82.2995 49.952 82.7573C46.4846 83.2151 42.9622 82.9627 39.5859 82.0146C36.2096 81.0664 33.0456 79.4411 30.2745 77.2314C27.5034 75.0218 25.1794 72.271 23.4354 69.1361C21.6914 66.0013 20.5613 62.5438 20.1099 58.961C19.6584 55.3783 19.8943 51.7404 20.8041 48.2552C21.714 44.77 23.2799 41.5056 25.4125 38.6485ZM57.5395 54.2791C55.4069 57.1362 52.7494 59.53 49.7186 61.324L41.7502 47.0012C42.9625 46.2836 44.0255 45.326 44.8786 44.1832C45.7316 43.0403 46.358 41.7346 46.7219 40.3405C47.0859 38.9464 47.1802 37.4913 46.9996 36.0582C46.819 34.6251 46.367 33.2421 45.6694 31.9881C44.9718 30.7342 44.0422 29.6339 42.9338 28.75C41.8254 27.8661 40.5597 27.216 39.2092 26.8368C37.8587 26.4575 36.4497 26.3566 35.0628 26.5397C33.6758 26.7228 32.338 27.1864 31.1257 27.904L23.1572 13.5811C26.188 11.7871 29.5326 10.6281 33 10.1703C36.4675 9.71256 39.9899 9.96493 43.3662 10.913C46.7425 11.8612 49.9065 13.4865 52.6776 15.6962C55.4487 17.9058 57.7726 20.6566 59.5166 23.7915C61.2607 26.9263 62.3907 30.3838 62.8422 33.9666C63.2937 37.5493 63.0577 41.1872 62.1479 44.6724C61.2381 48.1576 59.6722 51.422 57.5395 54.2791Z" fill="#1496FF"/>
</svg>
