<svg width="45" height="74" viewBox="0 0 45 74" fill="none" xmlns="http://www.w3.org/2000/svg">
    <path fill-rule="evenodd" clip-rule="evenodd" d="M6.41251 29.6485C8.54513 26.7914 11.2027 24.3976 14.2334 22.6036L22.2018 36.9264C20.9895 37.644 19.9265 38.6016 19.0735 39.7444C18.2204 40.8873 17.5941 42.193 17.2301 43.5871C16.8662 44.9812 16.7718 46.4363 16.9524 47.8694C17.133 49.3025 17.585 50.6855 18.2826 51.9395C18.9802 53.1934 19.9098 54.2937 21.0183 55.1776C22.1267 56.0615 23.3923 56.7116 24.7428 57.0908C26.0933 57.4701 27.5023 57.571 28.8893 57.3879C30.2763 57.2048 31.6141 56.7412 32.8264 56.0236L40.7948 70.3465C37.7641 72.1405 34.4195 73.2995 30.952 73.7573C27.4846 74.2151 23.9622 73.9627 20.5859 73.0146C17.2096 72.0664 14.0456 70.4411 11.2745 68.2314C8.50336 66.0218 6.17944 63.271 4.4354 60.1361C2.69135 57.0013 1.56133 53.5438 1.10986 49.961C0.658385 46.3783 0.894297 42.7404 1.80413 39.2552C2.71396 35.77 4.27989 32.5056 6.41251 29.6485ZM38.5399 45.2791C36.4073 48.1362 33.7497 50.5301 30.719 52.3241L22.7506 38.0012C23.9629 37.2836 25.0259 36.326 25.879 35.1832C26.732 34.0404 27.3584 32.7346 27.7223 31.3405C28.0862 29.9464 28.1806 28.4913 28 27.0582C27.8194 25.6251 27.3674 24.2421 26.6698 22.9882C25.9722 21.7342 25.0426 20.6339 23.9342 19.75C22.8257 18.8662 21.5601 18.216 20.2096 17.8368C18.8591 17.4575 17.4501 17.3566 16.0631 17.5397C14.6762 17.7228 13.3383 18.1864 12.126 18.904L4.15762 4.58113C7.18836 2.78714 10.5329 1.62815 14.0004 1.17036C17.4678 0.712582 20.9903 0.964956 24.3666 1.91307C27.7428 2.8612 30.9069 4.4865 33.678 6.69618C36.4491 8.90587 38.773 11.6567 40.517 14.7915C42.2611 17.9264 43.3911 21.3839 43.8426 24.9666C44.294 28.5494 44.0581 32.1872 43.1483 35.6724C42.2385 39.1577 40.6725 42.422 38.5399 45.2791Z" fill="white"/>
</svg>
